<?xml version="1.0" encoding="UTF-8" standalone="no"?>
<!-- Created with Inkscape (http://www.inkscape.org/) -->

<svg
   xmlns:dc="http://purl.org/dc/elements/1.1/"
   xmlns:cc="http://creativecommons.org/ns#"
   xmlns:rdf="http://www.w3.org/1999/02/22-rdf-syntax-ns#"
   xmlns:svg="http://www.w3.org/2000/svg"
   xmlns="http://www.w3.org/2000/svg"
   xmlns:sodipodi="http://sodipodi.sourceforge.net/DTD/sodipodi-0.dtd"
   xmlns:inkscape="http://www.inkscape.org/namespaces/inkscape"
   width="210mm"
   height="297mm"
   viewBox="0 0 210 297"
   version="1.1"
   id="svg8"
   inkscape:version="0.92.3 (2405546, 2018-03-11)"
   sodipodi:docname="nr4-of-team210.svg">
  <defs
     id="defs2" />
  <sodipodi:namedview
     id="base"
     pagecolor="#ffffff"
     bordercolor="#666666"
     borderopacity="1.0"
     inkscape:pageopacity="0.0"
     inkscape:pageshadow="2"
     inkscape:zoom="1.4"
     inkscape:cx="242.67455"
     inkscape:cy="710.50715"
     inkscape:document-units="mm"
     inkscape:current-layer="layer1"
     showgrid="false"
     inkscape:window-width="1920"
     inkscape:window-height="1017"
     inkscape:window-x="-8"
     inkscape:window-y="-8"
     inkscape:window-maximized="1">
    <inkscape:grid
       type="xygrid"
       id="grid837" />
  </sodipodi:namedview>
  <metadata
     id="metadata5">
    <rdf:RDF>
      <cc:Work
         rdf:about="">
        <dc:format>image/svg+xml</dc:format>
        <dc:type
           rdf:resource="http://purl.org/dc/dcmitype/StillImage" />
        <dc:title></dc:title>
      </cc:Work>
    </rdf:RDF>
  </metadata>
  <g
     inkscape:label="Layer 1"
     inkscape:groupmode="layer"
     id="layer1">
    <path
       style="fill:#900000;fill-opacity:0.47619048;stroke:#000000;stroke-width:3;stroke-linecap:butt;stroke-linejoin:round;stroke-miterlimit:4;stroke-dasharray:none;stroke-opacity:1"
       d="M 49.551634,88.924288 39.756341,80.117261 V 57.458509 L 31.75,48.480762 H 49.551634 L 64.812859,68.891369 V 48.480762 L 74.033723,37.141369 V 88.924288 H 64.812859 L 49.551634,70.970237 Z"
       id="path826"
       inkscape:connector-curvature="0"
       sodipodi:nodetypes="cccccccccccc" />
    <path
       style="fill:#900000;fill-opacity:0.47619048;stroke:#000000;stroke-width:11.33858299;stroke-linecap:butt;stroke-linejoin:round;stroke-miterlimit:4;stroke-dasharray:none;stroke-opacity:1"
       d="m 279.8125,183.23438 v 152.85742 55.37887 l 44.47266,-43.37887 v -29.14258 l 13.57226,17.14258 h 78.30469 V 296.8054 H 369.28516 L 482.85742,183.23438 Z m 44.47266,33.93164 h 78.57226 l -59.28515,62.49609 h -19.28711 z"
       transform="scale(0.26458333)"
       id="path839"
       inkscape:connector-curvature="0"
       sodipodi:nodetypes="cccccccccccccccc" />
    <path
       style="fill:#900000;fill-opacity:0.47619048;stroke:#000000;stroke-width:3;stroke-linecap:butt;stroke-linejoin:round;stroke-miterlimit:4;stroke-dasharray:none;stroke-opacity:1"
       d="M 110.10956,88.924288 V 78.529761 l 35.22228,-35.529763 v 14.458511 l -21.28006,21.071252 h 10.11729 v -4.384524 l 11.16277,-10.772323 v 34.912033 l -11.16277,-9.360659 z"
       id="path853"
       inkscape:connector-curvature="0"
       sodipodi:nodetypes="ccccccccccc" />
    <path
       style="fill:#900000;fill-opacity:0.47619048;stroke:#000000;stroke-width:3;stroke-linecap:butt;stroke-linejoin:round;stroke-miterlimit:4;stroke-dasharray:none;stroke-opacity:1"
       d="m 163.9471,38.086563 -18.61526,16.726111 11.83066,8.5602 h 14.24977 l 9.79647,-8.5602 z m -0.14521,14.836303 2.92902,1.889808 h -5.85856 z"
       id="path855"
       inkscape:connector-curvature="0"
       sodipodi:nodetypes="cccccccccc" />
    <path
       style="fill:#900000;fill-opacity:0.47619048;stroke:#000000;stroke-width:3;stroke-linecap:butt;stroke-linejoin:round;stroke-miterlimit:4;stroke-dasharray:none;stroke-opacity:1"
       d="m 145.33184,63.372914 v 14.62768 h 11.83066 l 11.79286,10.016369 V 78.000594 l 12.25338,10.016369 V 63.372914 Z"
       id="path860"
       inkscape:connector-curvature="0"
       sodipodi:nodetypes="cccccccc" />
    <path
       style="fill:#900000;fill-opacity:0.47619048;stroke:#000000;stroke-width:3;stroke-linecap:butt;stroke-linejoin:round;stroke-miterlimit:4;stroke-dasharray:none;stroke-opacity:1"
       d="m 39.756341,80.912585 9.795293,8.953529 V 107.83999 H 64.812859 L 59.2002,118.59741 h -9.648566 v 0 h 24.382974 l 7.873705,8.69128 H 49.551634 l -9.795293,-8.69128 v 0 H 27.796029 l 6.882191,-10.75742 h 5.078121 z"
       id="path862"
       inkscape:connector-curvature="0"
       sodipodi:nodetypes="cccccccccccccccc" />
    <path
       style="fill:#900000;fill-opacity:0.47619048;stroke:#000000;stroke-width:11.33858299;stroke-linecap:butt;stroke-linejoin:round;stroke-miterlimit:4;stroke-dasharray:none;stroke-opacity:1"
       d="m 337.85742,336.0918 -58.04492,54.0664 v 58.08399 l 30.80859,32.84893 h 67.17579 l 38.36523,-32.84893 h -78.26563 27.7793 l 50.48633,-40.91016 V 371.47067 L 380.32227,336.0918 Z m 15.69531,39.37887 14.64844,14.68753 -27.27539,23.74024 h -16.64062 v -11.61719 z"
       transform="scale(0.26458333)"
       id="path864"
       inkscape:connector-curvature="0"
       sodipodi:nodetypes="cccccccccccccccccc" />
    <path
       style="fill:#900000;fill-opacity:0.47619048;stroke:#000000;stroke-width:11.33858299;stroke-linecap:butt;stroke-linejoin:round;stroke-miterlimit:4;stroke-dasharray:none;stroke-opacity:1"
       d="m 507.0957,336.0918 h -47.57812 l -43.35547,35.37887 v 109.62045 l 43.35547,41.90299 v -41.90299 h 47.57812 v 41.90299 l 42.19,-41.90299 V 371.47067 Z m -47.57812,35.37887 h 47.57812 v 76.77152 h -47.57812 z"
       transform="scale(0.26458333)"
       id="path869"
       inkscape:connector-curvature="0"
       sodipodi:nodetypes="cccccccccccccccc" />
    <path
       style="fill:#900000;fill-opacity:0.47619048;stroke:#000000;stroke-width:3;stroke-linecap:butt;stroke-linejoin:round;stroke-miterlimit:4;stroke-dasharray:none;stroke-opacity:1"
       d="M 157.1625,138.37552 145.33184,127.28869 V 97.226614 l 11.83066,-9.360659 h 11.79286 l 12.25338,9.360659 v 30.062076 l -12.25338,11.08683 v -35.14616 24.05933 l -6.16513,7.34507 -5.62773,-7.34507 v -24.05933 z"
       id="path874"
       inkscape:connector-curvature="0"
       sodipodi:nodetypes="cccccccccccccc" />
    <path
       style="fill:#900000;fill-opacity:0.47619048;stroke:#000000;stroke-width:3;stroke-linecap:butt;stroke-linejoin:round;stroke-miterlimit:4;stroke-dasharray:none;stroke-opacity:1"
       d="m 28.537201,127.28869 h 33.261906 l 12.234616,11.08683 v 15.3715 L 61.799107,167.35416 H 28.537201 l 11.21914,-13.60714 h 16.940086 l 4.941432,-4.49792 v -6.42559 l -4.941432,-4.44799 H 39.756341 Z"
       id="path876"
       inkscape:connector-curvature="0"
       sodipodi:nodetypes="ccccccccccccc" />
    <path
       style="fill:#900000;fill-opacity:0.47619048;stroke:#000000;stroke-width:3;stroke-linecap:butt;stroke-linejoin:round;stroke-miterlimit:4;stroke-dasharray:none;stroke-opacity:1"
       d="m 74.033723,127.28869 v 39.12054 l 11.766725,13.04017 v -52.16071 z"
       id="path878"
       inkscape:connector-curvature="0"
       sodipodi:nodetypes="ccccc" />
    <path
       style="fill:#900000;fill-opacity:0.47619048;stroke:#000000;stroke-width:11.33858299;stroke-linecap:butt;stroke-linejoin:round;stroke-miterlimit:4;stroke-dasharray:none;stroke-opacity:1"
       d="m 369.7168,481.09112 -45.43164,41.90299 v 80.95511 l 59.06836,60.4668 78.16406,-60.4668 v -80.95511 l -45.35547,-41.90299 z m 30.72656,41.90299 25.71875,25.77933 v 19.67773 l -37.71875,29.27344 h -0.16211 l -27.7168,-27.27344 v -23.67773 l 23.7168,-23.77933 z"
       transform="scale(0.26458333)"
       id="path880"
       inkscape:connector-curvature="0"
       sodipodi:nodetypes="ccccccccccccccccc" />
    <path
       style="fill:#900000;fill-opacity:0.44973545;stroke:#000000;stroke-width:3;stroke-linecap:butt;stroke-linejoin:round;stroke-miterlimit:4;stroke-dasharray:none;stroke-opacity:1"
       d="m 168.95536,159.80009 v 25.70238 l 32.47581,-33.63988 -20.22243,-24.5739 -12.25338,11.08683 h -46.9756 v 21.42457 z"
       id="path887"
       inkscape:connector-curvature="0"
       sodipodi:nodetypes="cccccccc" />
  </g>
</svg>
